<svg xmlns="http://www.w3.org/2000/svg" width="100" height="100" fill="#000" viewBox="0 0 448 512">
  <path d="M416 32H31.9C14.3 32 0 46.5 0 64.3v383.4C0 465.5 14.3 480 31.9 480H416c17.6 0 32-14.5 32-32.3V64.3c0-17.8-14.4-32.3-32-32.3zM135.4 416H69V206.2h66.5V416zm-33.3-238.8c-21.5 0-39-17.6-39-39.3s17.5-39.3 39-39.3c21.6 0 39 17.6 39 39.3 0 21.7-17.4 39.3-39 39.3zM416 416h-66.4V293.8c0-34.2-.7-78.2-47.4-78.2-47.5 0-54.8 37.1-54.8 75.6V416h-66.5V206.2h63.9v40.3h.9c8.9-16.8 30.6-34.5 63-34.5 67.3 0 79.9 44.3 79.9 101.9V416z"/>
</svg>
